<svg width="25" height="26" viewBox="0 0 25 26" fill="none" xmlns="http://www.w3.org/2000/svg">
<path d="M5.67989 11.7898C4.97658 18.2963 2.21053 20.2634 2.21053 20.2634H24C24 20.2634 20.3684 17.6814 20.3684 8.64239C20.3684 6.58812 19.6034 4.61739 18.2415 3.16476C16.8785 1.71212 15.03 0.89502 13.1053 0.89502C12.6973 0.89502 12.2918 0.931335 11.8947 1.00397" stroke="#FE3400" stroke-width="1.5" stroke-linecap="round" stroke-linejoin="round"/>
<path d="M4.6316 8.15818C3.66845 8.15818 2.74474 7.77557 2.06369 7.09451C1.38264 6.41346 1.00003 5.48975 1.00003 4.5266C1.00003 3.56344 1.38264 2.63974 2.06369 1.95868C2.74474 1.27763 3.66845 0.89502 4.6316 0.89502C5.59476 0.89502 6.51847 1.27763 7.19952 1.95868C7.88057 2.63974 8.26318 3.56344 8.26318 4.5266C8.26318 5.48975 7.88057 6.41346 7.19952 7.09451C6.51847 7.77557 5.59476 8.15818 4.6316 8.15818Z" stroke="#FE3400" stroke-width="1.5" stroke-linecap="round" stroke-linejoin="round"/>
<path d="M11.0115 23.895C11.2241 24.2622 11.5295 24.5671 11.8971 24.779C12.2646 24.9909 12.6815 25.1025 13.1057 25.1025C13.53 25.1025 13.9469 24.9909 14.3144 24.779C14.682 24.5671 14.9874 24.2622 15.2 23.895" stroke="#FE3400" stroke-width="1.5" stroke-linecap="round" stroke-linejoin="round"/>
</svg>
