<svg width="17" height="17" viewBox="0 0 17 17" fill="none" xmlns="http://www.w3.org/2000/svg">
<path fill-rule="evenodd" clip-rule="evenodd" d="M12.0417 4.25V3.54167C12.0417 3.16594 11.8924 2.80561 11.6267 2.53993C11.3611 2.27426 11.0007 2.125 10.625 2.125H6.375C5.99928 2.125 5.63894 2.27426 5.37327 2.53993C5.10759 2.80561 4.95833 3.16594 4.95833 3.54167V4.25H2.83333C2.64547 4.25 2.4653 4.32463 2.33247 4.45747C2.19963 4.5903 2.125 4.77047 2.125 4.95833C2.125 5.1462 2.19963 5.32636 2.33247 5.4592C2.4653 5.59204 2.64547 5.66667 2.83333 5.66667H3.54167V13.4583C3.54167 14.0219 3.76555 14.5624 4.16406 14.9609C4.56258 15.3595 5.10308 15.5833 5.66667 15.5833H11.3333C11.8969 15.5833 12.4374 15.3595 12.8359 14.9609C13.2345 14.5624 13.4583 14.0219 13.4583 13.4583V5.66667H14.1667C14.3545 5.66667 14.5347 5.59204 14.6675 5.4592C14.8004 5.32636 14.875 5.1462 14.875 4.95833C14.875 4.77047 14.8004 4.5903 14.6675 4.45747C14.5347 4.32463 14.3545 4.25 14.1667 4.25H12.0417ZM10.625 3.54167H6.375V4.25H10.625V3.54167ZM12.0417 5.66667H4.95833V13.4583C4.95833 13.6462 5.03296 13.8264 5.1658 13.9592C5.29864 14.092 5.4788 14.1667 5.66667 14.1667H11.3333C11.5212 14.1667 11.7014 14.092 11.8342 13.9592C11.967 13.8264 12.0417 13.6462 12.0417 13.4583V5.66667Z" fill="#807A74"/>
</svg>
