<svg width="13" height="10" viewBox="0 0 13 10" fill="none" xmlns="http://www.w3.org/2000/svg">
<path d="M11.893 2.49097C11.7495 2.36821 11.5752 2.28927 11.39 2.26315C11.2048 2.23703 11.0162 2.26478 10.8456 2.34324L8.47625 3.42252L7.08817 0.861822C7.00129 0.701552 6.87418 0.568007 6.72 0.475027C6.56582 0.382046 6.39018 0.333013 6.21129 0.333008C6.0324 0.333003 5.85676 0.382026 5.70258 0.474997C5.54839 0.567969 5.42127 0.701506 5.33439 0.86177L3.94631 3.42252L1.5764 2.34303C1.40575 2.26533 1.21732 2.238 1.03233 2.2641C0.847332 2.29021 0.673121 2.36871 0.529303 2.49079C0.385484 2.61286 0.277768 2.77365 0.218279 2.95506C0.15879 3.13647 0.149891 3.3313 0.192583 3.51762L1.46877 9.08643C1.50015 9.22119 1.55769 9.34808 1.63797 9.45955C1.71825 9.57101 1.81961 9.66475 1.93601 9.73519C2.05241 9.80563 2.18146 9.85131 2.31546 9.86952C2.44947 9.88772 2.58568 9.87807 2.71596 9.84115C5.00261 9.19423 7.41752 9.194 9.70429 9.84048C9.83452 9.87775 9.97076 9.88767 10.1048 9.86964C10.2389 9.8516 10.368 9.806 10.4845 9.73555C10.6009 9.6651 10.7023 9.57127 10.7825 9.45968C10.8626 9.34809 10.92 9.22105 10.9511 9.08618L12.2296 3.51818C12.2731 3.33184 12.2646 3.13673 12.205 2.95511C12.1455 2.77348 12.0374 2.61265 11.893 2.49097ZM2.64063 8.80433L2.64058 8.80392L2.64068 8.80443L2.64063 8.80433ZM9.82687 8.59665C7.45519 7.96367 4.96484 7.9639 2.59328 8.59732L1.45673 3.63862L3.62505 4.6263C3.85392 4.73184 4.11318 4.74516 4.35119 4.6636C4.58921 4.58203 4.78851 4.41158 4.90941 4.18618L6.21128 1.78447L7.51319 4.18623C7.63406 4.41163 7.83336 4.58208 8.07136 4.66363C8.30937 4.74518 8.56862 4.73183 8.79745 4.62625L10.9652 3.63883L9.82687 8.59665Z" fill="#352C23"/>
</svg>
