<svg width="27" height="26" viewBox="0 0 27 26" fill="none" xmlns="http://www.w3.org/2000/svg">
<rect x="0.00195312" y="3.05176e-05" width="26" height="26" rx="8" fill="#FE6740"/>
<path d="M19.163 7.31055C19.2622 7.21223 19.3807 7.13413 19.5115 7.08081C19.6422 7.02749 19.7826 7.00003 19.9244 7.00003C20.0662 7.00003 20.2066 7.02749 20.3374 7.08081C20.4682 7.13413 20.5866 7.21223 20.6859 7.31055C21.1019 7.71858 21.1077 8.37792 20.7004 8.793L12.0995 18.6619C12.0019 18.766 11.8834 18.8497 11.7513 18.9078C11.6192 18.9659 11.4763 18.9972 11.3312 18.9998C11.1862 19.0025 11.0422 18.9764 10.9079 18.9231C10.7737 18.8699 10.652 18.7906 10.5504 18.6902L5.31686 13.5425C5.11502 13.3427 5.00195 13.0741 5.00195 12.7942C5.00195 12.5144 5.11502 12.2457 5.31686 12.0459C5.41613 11.9476 5.5346 11.8695 5.66536 11.8162C5.79611 11.7629 5.9365 11.7354 6.07833 11.7354C6.22015 11.7354 6.36055 11.7629 6.4913 11.8162C6.62205 11.8695 6.74053 11.9476 6.8398 12.0459L11.2792 16.4128L19.1339 7.34161C19.1429 7.3307 19.1526 7.32032 19.163 7.31055Z" fill="white"/>
</svg>
