<svg width="17" height="16" viewBox="0 0 17 16" fill="none" xmlns="http://www.w3.org/2000/svg">
<path d="M5.41736 14.8869L13.4293 6.88672L9.6238 3.08679L1.61183 11.087C1.50153 11.1972 1.42318 11.3353 1.38509 11.4864L0.49707 16L5.01646 15.1133C5.1682 15.0754 5.30701 14.9971 5.41736 14.8869ZM16.0158 4.30408C16.339 3.9812 16.5206 3.54334 16.5206 3.08679C16.5206 2.63024 16.339 2.19238 16.0158 1.8695L14.6484 0.50414C14.3251 0.181359 13.8866 3.05176e-05 13.4293 3.05176e-05C12.9721 3.05176e-05 12.5336 0.181359 12.2102 0.50414L10.8429 1.8695L14.6484 5.66944L16.0158 4.30408Z" fill="#FE6740"/>
</svg>
