<svg width="18" height="18" viewBox="0 0 18 18" fill="none" xmlns="http://www.w3.org/2000/svg" style="margin-right: 8px" >
<path d="M11.5011 8.28561C11.7853 8.28561 12.0578 8.17273 12.2587 7.9718C12.4597 7.77086 12.5725 7.49834 12.5725 7.21418C12.5725 6.93002 12.4597 6.6575 12.2587 6.45657C12.0578 6.25563 11.7853 6.14275 11.5011 6.14275C11.217 6.14275 10.9444 6.25563 10.7435 6.45657C10.5426 6.6575 10.4297 6.93002 10.4297 7.21418C10.4297 7.49834 10.5426 7.77086 10.7435 7.9718C10.9444 8.17273 11.217 8.28561 11.5011 8.28561ZM7.57255 7.21418C7.57255 7.49834 7.45966 7.77086 7.25873 7.9718C7.0578 8.17273 6.78528 8.28561 6.50112 8.28561C6.21696 8.28561 5.94443 8.17273 5.7435 7.9718C5.54257 7.77086 5.42969 7.49834 5.42969 7.21418C5.42969 6.93002 5.54257 6.6575 5.7435 6.45657C5.94443 6.25563 6.21696 6.14275 6.50112 6.14275C6.78528 6.14275 7.0578 6.25563 7.25873 6.45657C7.45966 6.6575 7.57255 6.93002 7.57255 7.21418ZM4.94969 11.2356C5.06677 11.1559 5.21065 11.1258 5.34987 11.1519C5.48908 11.178 5.61229 11.2582 5.69254 11.3749L5.69897 11.3835L5.7304 11.4256C5.7604 11.4642 5.80897 11.5228 5.8754 11.5956C6.00897 11.7406 6.21255 11.9385 6.48826 12.1363C7.03683 12.5313 7.86683 12.9285 9.00112 12.9285C10.1354 12.9285 10.9654 12.5313 11.514 12.1363C11.7897 11.9385 11.994 11.7406 12.1268 11.5956C12.1892 11.5277 12.2483 11.457 12.304 11.3835L12.309 11.3763C12.389 11.2589 12.5124 11.178 12.6521 11.1516C12.7917 11.1251 12.9362 11.1552 13.0536 11.2353C13.1711 11.3153 13.2519 11.4387 13.2784 11.5784C13.3048 11.718 13.2747 11.8624 13.1947 11.9799L13.1933 11.9806V11.982L13.1911 11.9842L13.1861 11.9913L13.1704 12.0135C13.0911 12.1196 13.0064 12.2216 12.9168 12.3192C12.6818 12.5741 12.4214 12.8043 12.1397 13.0063C11.4468 13.5042 10.4025 13.9999 9.00112 13.9999C7.59969 13.9999 6.5554 13.5042 5.86255 13.0063C5.58081 12.8043 5.32041 12.5741 5.0854 12.3192C4.99007 12.215 4.90042 12.1058 4.81683 11.992L4.81112 11.9849L4.80969 11.982L4.80897 11.9806L4.80826 11.9799C4.72832 11.8624 4.69831 11.718 4.72483 11.5785C4.75135 11.4389 4.83224 11.3156 4.94969 11.2356ZM9.00112 0.428467C4.26755 0.428467 0.429688 4.26632 0.429688 8.9999C0.429688 13.7335 4.26755 17.5713 9.00112 17.5713C13.7347 17.5713 17.5725 13.7335 17.5725 8.9999C17.5725 4.26632 13.7347 0.428467 9.00112 0.428467ZM1.50112 8.9999C1.50112 4.85775 4.85897 1.4999 9.00112 1.4999C13.1433 1.4999 16.5011 4.85775 16.5011 8.9999C16.5011 13.142 13.1433 16.4999 9.00112 16.4999C4.85897 16.4999 1.50112 13.142 1.50112 8.9999Z" fill="#807A74"/>
</svg>
