<svg width="52" height="52" viewBox="0 0 52 52" fill="none" xmlns="http://www.w3.org/2000/svg">
<path d="M40.5 25C46.8513 25 52 19.8513 52 13.5C52 7.14873 46.8513 2 40.5 2C34.1487 2 29 7.14873 29 13.5C29 19.8513 34.1487 25 40.5 25Z" fill="#FE3400"/>
<path fill-rule="evenodd" clip-rule="evenodd" d="M18.5699 0C18.5698 0.000116965 18.5697 0.000289975 20.285 1.01983C22.0004 2.03938 22.0002 2.03966 22 2.04001L21.9994 2.04097L21.9922 2.05377C21.9874 2.06211 21.9806 2.07397 21.9718 2.08927C21.9543 2.11986 21.9288 2.16419 21.8955 2.22155C21.829 2.33629 21.7315 2.50324 21.605 2.71687C21.3519 3.14407 20.9823 3.75838 20.5111 4.5155C19.5695 6.02868 18.219 8.11792 16.5797 10.4271C13.7782 14.3736 10.0509 19.0817 6.01805 22.6275C6.54735 22.9853 7.21307 23.3808 8.02642 23.7703C10.7176 25.0588 15.0987 26.3158 21.6218 25.8384L21.9051 29.8862C14.73 30.4113 9.66973 29.0379 6.34405 27.4456C4.68785 26.6526 3.47973 25.8138 2.66713 25.1505C2.26112 24.8191 1.95431 24.5318 1.73989 24.3164C1.63268 24.2087 1.54854 24.1189 1.4866 24.0505C1.45563 24.0163 1.43021 23.9875 1.41022 23.9644C1.40023 23.9528 1.39159 23.9427 1.38431 23.9341C1.38066 23.9298 1.37735 23.9259 1.37438 23.9223L1.37017 23.9173L1.36825 23.915C1.36734 23.9139 1.36646 23.9128 2.88062 22.6017L1.36646 23.9128L0 22.2621L1.69779 20.9727C5.96933 17.7285 10.1769 12.5393 13.3688 8.04287C14.9502 5.81514 16.255 3.79682 17.1636 2.33665C17.6176 1.6071 17.9718 1.01829 18.2113 0.614033C18.331 0.411942 18.422 0.256081 18.4824 0.151937C18.5126 0.0998685 18.5351 0.0607381 18.5497 0.0352322L18.5657 0.00728134L18.5699 0Z" fill="#FE3400"/>
<path fill-rule="evenodd" clip-rule="evenodd" d="M48 51.7452C48.0001 51.7462 48.0001 51.7472 46.2119 51.8714C44.4237 51.9957 44.4238 51.9965 44.4238 51.9973L44.4239 51.9985L44.424 51.9999C44.4241 52.0003 44.424 51.9998 44.4239 51.9983C44.4236 51.9954 44.4231 51.9887 44.4221 51.9784C44.4202 51.9578 44.4167 51.9227 44.4111 51.8741C44.4001 51.7769 44.3811 51.6259 44.3504 51.4288C44.2889 51.0342 44.1812 50.4581 43.9987 49.7615C43.6322 48.3619 42.9737 46.5121 41.8117 44.6766C39.54 41.0883 35.2823 37.4229 26.9835 37.4229C18.6829 37.4229 14.4345 41.0795 12.1722 44.6553C11.0147 46.4849 10.3603 48.3289 9.99685 49.7241C9.81595 50.4185 9.70946 50.9928 9.64883 51.3862C9.61855 51.5826 9.59984 51.733 9.58902 51.8299C9.58362 51.8783 9.5802 51.9132 9.57831 51.9337C9.57736 51.944 9.5768 51.9506 9.57656 51.9535L9.57663 51.9524C9.57669 51.9517 9.57675 51.9508 7.7883 51.8296C5.99985 51.7083 5.99992 51.7074 6 51.7064L6.00017 51.7041L6.00062 51.6983L6.00192 51.6823C6.00297 51.6697 6.0044 51.6532 6.00627 51.633C6.01001 51.5925 6.01553 51.5369 6.0233 51.4672C6.03884 51.328 6.06346 51.1322 6.10113 50.8879C6.17638 50.3997 6.30417 49.7148 6.5169 48.8981C6.9407 47.2712 7.71084 45.0857 9.10263 42.8858C11.939 38.4025 17.2882 34 26.9835 34C36.6807 34 42.0371 38.4146 44.8807 42.9063C46.2764 45.1108 47.0506 47.3009 47.4776 48.9314C47.6919 49.7498 47.8211 50.4361 47.8973 50.9253C47.9354 51.1701 47.9604 51.3663 47.9762 51.5058C47.9841 51.5756 47.9898 51.6312 47.9936 51.6718C47.9955 51.692 47.997 51.7085 47.998 51.7211L47.9994 51.7371L47.9998 51.7429L48 51.7452Z" fill="#FE3400"/>
</svg>
