<svg width="18" height="18" viewBox="0 0 18 18" fill="none" xmlns="http://www.w3.org/2000/svg">
<path d="M16 10V15C16 15.55 15.55 16 15 16H3C2.45 16 2 15.55 2 15V10C2 9.45 1.55 9 1 9C0.45 9 0 9.45 0 10V16C0 17.1 0.9 18 2 18H16C17.1 18 18 17.1 18 16V10C18 9.45 17.55 9 17 9C16.45 9 16 9.45 16 10ZM10 9.67L11.88 7.79C11.9726 7.69742 12.0825 7.62398 12.2035 7.57387C12.3244 7.52377 12.4541 7.49798 12.585 7.49798C12.7159 7.49798 12.8456 7.52377 12.9665 7.57387C13.0875 7.62398 13.1974 7.69742 13.29 7.79C13.3826 7.88258 13.456 7.99249 13.5061 8.11346C13.5562 8.23442 13.582 8.36407 13.582 8.495C13.582 8.62593 13.5562 8.75558 13.5061 8.87654C13.456 8.99751 13.3826 9.10742 13.29 9.2L9.7 12.79C9.60749 12.8827 9.4976 12.9563 9.37662 13.0064C9.25565 13.0566 9.12597 13.0824 8.995 13.0824C8.86403 13.0824 8.73435 13.0566 8.61338 13.0064C8.4924 12.9563 8.38251 12.8827 8.29 12.79L4.7 9.2C4.51302 9.01302 4.40798 8.75943 4.40798 8.495C4.40798 8.23057 4.51302 7.97698 4.7 7.79C4.88698 7.60302 5.14057 7.49798 5.405 7.49798C5.66943 7.49798 5.92302 7.60302 6.11 7.79L8 9.67V1C8 0.45 8.45 0 9 0C9.55 0 10 0.45 10 1V9.67Z" fill="#807A74"/>
</svg>
