<svg width="22" height="22" viewBox="0 0 22 22" fill="none" xmlns="http://www.w3.org/2000/svg">
<path d="M11 0.822998C4.9247 0.822998 0 4.64742 0 9.3666C0 12.3018 1.9052 14.8881 4.8048 16.4255L3.5849 20.907C3.56249 20.9955 3.56749 21.0887 3.59924 21.1743C3.631 21.2598 3.688 21.3337 3.76269 21.3861C3.83739 21.4385 3.92624 21.467 4.01747 21.4677C4.1087 21.4684 4.19799 21.4414 4.2735 21.3901L9.6228 17.8409C10.0738 17.8849 10.5336 17.9102 11 17.9102C17.0753 17.9102 22 14.0847 22 9.3666C22 4.64852 17.0753 0.822998 11 0.822998Z" fill="black" fill-opacity="0.9"/>
</svg>
