<svg width="87" height="20" viewBox="0 0 87 20" fill="none" xmlns="http://www.w3.org/2000/svg">
<g clip-path="url(#clip0_1958_2841)">
<path d="M25.7671 20C21.4596 20 18.4158 16.6087 18.4158 12.3989C18.4158 8.18907 21.4732 4.99829 25.7671 4.99829C27.7205 4.99829 29.2695 5.64981 30.3634 6.74904C30.9647 7.37049 31.1685 8.50314 31.4539 9.32171L31.9431 9.15132C31.6543 8.35947 31.1957 7.34377 31.1685 6.47841L31.1108 5.40591H33.6382V19.5289H31.1108L31.1685 18.3728C31.1957 17.5242 31.6543 16.5085 31.9125 15.6999L31.4539 15.5563C31.1685 16.3481 30.9647 17.4774 30.3906 18.1289C29.7968 18.7427 29.0782 19.2266 28.2815 19.5489C27.4849 19.8713 26.6282 20.025 25.7671 20ZM25.8249 17.6612C28.9264 17.6612 30.6216 15.1186 30.7643 12.4056C30.7643 9.29832 28.9842 7.35045 25.8249 7.35045C22.6656 7.35045 20.9126 9.52552 20.9126 12.4056C20.9126 15.2856 22.6927 17.6545 25.8249 17.6545V17.6612Z" fill="#FE3400"/>
<path d="M39.8685 7.96521H36.9979V5.7066H39.8685V0.958862H42.3688V5.7066H46.1056V7.96521H42.3688V15.9305C42.3688 17.0898 42.9123 17.4273 44.2644 17.4273H45.9629V19.7661H43.2452C41.0337 19.7661 39.8481 18.0721 39.8481 15.9238L39.8685 7.96521Z" fill="#FE3400"/>
<path d="M49.4619 0H52.2747V2.6729H49.4619V0ZM49.6352 5.64985H52.1626V19.7728H49.6352V5.64985Z" fill="#FE3400"/>
<path d="M62.816 4.77454C67.3545 4.77454 70.4866 7.93858 70.4866 12.2019C70.4866 16.4651 67.3545 19.7729 62.816 19.7729C58.2774 19.7729 55.1487 16.5253 55.1487 12.2019C55.1487 7.87844 58.2774 4.77454 62.816 4.77454ZM62.816 17.4007C66.2335 17.4007 67.9116 15.0619 67.9116 12.2019C67.9116 9.34186 66.2436 7.14674 62.816 7.14674C59.3883 7.14674 57.7203 9.34854 57.7203 12.2019C57.7203 15.0552 59.3985 17.4007 62.816 17.4007Z" fill="#FE3400"/>
<path d="M81.7141 5.22546C84.7002 5.22546 87 6.86261 87 10.0835V19.7727H84.4726V11.8643C84.4726 8.85727 83.2938 7.54086 80.8819 7.54086C78.2117 7.54086 75.9696 8.87732 75.9696 11.8643V19.7727H73.4694V5.65647H75.9696V5.96719C75.9696 6.92609 75.511 8.0554 75.1373 8.93077L75.5959 9.10117C75.9696 8.22579 76.3433 7.03969 77.0907 6.44497C78.4393 5.36579 79.6759 5.22546 81.7141 5.22546Z" fill="#FE3400"/>
<path d="M10.5685 12.2887L3.90676 12.2586C3.07107 12.0047 2.03835 11.5537 1.18907 11.5236L0.0136719 11.4668V13.9526H14.3733V11.4668L13.2828 11.5236C12.4063 11.5537 11.3634 12.0047 10.5685 12.2887Z" fill="#FE3400"/>
</g>
<defs>
<clipPath id="clip0_1958_2841">
<rect width="87" height="20" fill="white"/>
</clipPath>
</defs>
</svg>
