<svg width="121" height="28" viewBox="0 0 121 28" fill="none" xmlns="http://www.w3.org/2000/svg">
<g clip-path="url(#clip0_1309_4533)">
<path d="M35.8376 27.9999C29.8466 27.9999 25.6133 23.2521 25.6133 17.3584C25.6133 11.4646 29.8655 6.99756 35.8376 6.99756C38.5543 6.99756 40.7087 7.90969 42.2301 9.44861C43.0664 10.3186 43.3499 11.9043 43.7467 13.0503L44.4271 12.8118C44.0255 11.7032 43.3877 10.2812 43.3499 9.06973L43.2696 7.56822H46.7847V27.3404H43.2696L43.3499 25.7219C43.3877 24.5338 44.0255 23.1118 44.3846 21.9798L43.7467 21.7787C43.3499 22.8873 43.0664 24.4683 42.2679 25.3804C41.4421 26.2397 40.4426 26.9171 39.3346 27.3685C38.2267 27.8198 37.0351 28.0349 35.8376 27.9999ZM35.9179 24.7256C40.2316 24.7256 42.5892 21.1659 42.7876 17.3678C42.7876 13.0176 40.3119 10.2906 35.9179 10.2906C31.5239 10.2906 29.086 13.3357 29.086 17.3678C29.086 21.3998 31.5617 24.7162 35.9179 24.7162V24.7256Z" fill="#FE3400"/>
<path d="M55.4494 11.1512H51.457V7.98912H55.4494V1.34229H58.9268V7.98912H64.124V11.1512H58.9268V22.3025C58.9268 23.9256 59.6828 24.3981 61.5632 24.3981H63.9256V27.6724H60.1458C57.07 27.6724 55.4211 25.3009 55.4211 22.2932L55.4494 11.1512Z" fill="#FE3400"/>
<path d="M68.792 0H72.7041V3.74206H68.792V0ZM69.033 7.90978H72.5482V27.6819H69.033V7.90978Z" fill="#FE3400"/>
<path d="M87.3649 6.68408C93.6771 6.68408 98.0333 11.1137 98.0333 17.0823C98.0333 23.0509 93.6771 27.6817 87.3649 27.6817C81.0526 27.6817 76.7012 23.1351 76.7012 17.0823C76.7012 11.0296 81.0526 6.68408 87.3649 6.68408ZM87.3649 24.3607C92.1179 24.3607 94.4519 21.0864 94.4519 17.0823C94.4519 13.0783 92.1321 10.0052 87.3649 10.0052C82.5976 10.0052 80.2778 13.0877 80.2778 17.0823C80.2778 21.077 82.6118 24.3607 87.3649 24.3607Z" fill="#FE3400"/>
<path d="M113.649 7.31592C117.802 7.31592 121 9.60793 121 14.1171V27.6821H117.485V16.6103C117.485 12.4004 115.846 10.5575 112.491 10.5575C108.777 10.5575 105.659 12.4285 105.659 16.6103V27.6821H102.182V7.91932H105.659V8.35433C105.659 9.6968 105.021 11.2778 104.501 12.5034L105.139 12.7419C105.659 11.5164 106.179 9.85584 107.218 9.02323C109.094 7.51237 110.814 7.31592 113.649 7.31592Z" fill="#FE3400"/>
<path d="M14.6983 17.2044L5.43308 17.1623C4.2708 16.8068 2.83449 16.1753 1.65331 16.1332L0.0185547 16.0537V19.5338H19.9899V16.0537L18.4733 16.1332C17.2543 16.1753 15.8038 16.8068 14.6983 17.2044Z" fill="#FE3400"/>
</g>
<defs>
<clipPath id="clip0_1309_4533">
<rect width="121" height="28" fill="white"/>
</clipPath>
</defs>
</svg>
