<svg width="56" height="55" viewBox="0 0 56 55" fill="none" xmlns="http://www.w3.org/2000/svg">
<path d="M40.5 25C46.8513 25 52 19.8513 52 13.5C52 7.14873 46.8513 2 40.5 2C34.1487 2 29 7.14873 29 13.5C29 19.8513 34.1487 25 40.5 25Z" fill="#FE3400"/>
<path fill-rule="evenodd" clip-rule="evenodd" d="M18.5699 0C18.5698 0.000116965 18.5697 0.000289975 20.285 1.01983C22.0004 2.03938 22.0002 2.03966 22 2.04001L21.9994 2.04097L21.9922 2.05377C21.9874 2.06211 21.9806 2.07397 21.9718 2.08927C21.9543 2.11986 21.9288 2.16419 21.8955 2.22155C21.829 2.33629 21.7315 2.50324 21.605 2.71687C21.3519 3.14407 20.9823 3.75838 20.5111 4.5155C19.5695 6.02868 18.219 8.11792 16.5797 10.4271C13.7782 14.3736 10.0509 19.0817 6.01805 22.6275C6.54735 22.9853 7.21307 23.3808 8.02642 23.7703C10.7176 25.0588 15.0987 26.3158 21.6218 25.8384L21.9051 29.8862C14.73 30.4113 9.66973 29.0379 6.34405 27.4456C4.68785 26.6526 3.47973 25.8138 2.66713 25.1505C2.26112 24.8191 1.95431 24.5318 1.73989 24.3164C1.63268 24.2087 1.54854 24.1189 1.4866 24.0505C1.45563 24.0163 1.43021 23.9875 1.41022 23.9644C1.40023 23.9528 1.39159 23.9427 1.38431 23.9341C1.38066 23.9298 1.37735 23.9259 1.37438 23.9223L1.37017 23.9173L1.36825 23.915C1.36734 23.9139 1.36646 23.9128 2.88062 22.6017L1.36646 23.9128L0 22.2621L1.69779 20.9727C5.96933 17.7285 10.1769 12.5393 13.3688 8.04287C14.9502 5.81514 16.255 3.79682 17.1636 2.33665C17.6176 1.6071 17.9718 1.01829 18.2113 0.614033C18.331 0.411942 18.422 0.256081 18.4824 0.151937C18.5126 0.0998685 18.5351 0.0607381 18.5497 0.0352322L18.5657 0.00728134L18.5699 0Z" fill="#FE3400"/>
<path fill-rule="evenodd" clip-rule="evenodd" d="M3 34.2972C2.99991 34.2961 2.99983 34.295 5.04351 34.15C7.08719 34.005 7.08712 34.0041 7.08706 34.0032L7.08695 34.0018L7.08682 34.0002C7.08678 33.9997 7.08683 34.0003 7.08697 34.002C7.08726 34.0054 7.08792 34.0132 7.08903 34.0252C7.09125 34.0493 7.09525 34.0902 7.10155 34.1469C7.11415 34.2603 7.13591 34.4365 7.171 34.6664C7.24127 35.1267 7.36439 35.7989 7.57288 36.6116C7.99172 38.2444 8.7444 40.4026 10.0724 42.544C12.6685 46.7303 17.5345 51.0066 27.0188 51.0066C36.5053 51.0066 41.3606 46.7406 43.946 42.5689C45.2689 40.4343 46.0168 38.2829 46.4322 36.6552C46.6389 35.845 46.7606 35.175 46.8299 34.7161C46.8645 34.487 46.8859 34.3115 46.8983 34.1985C46.9044 34.142 46.9083 34.1012 46.9105 34.0773C46.9116 34.0654 46.9122 34.0576 46.9125 34.0542L46.9124 34.0555C46.9124 34.0564 46.9123 34.0574 48.9562 34.1988C51.0002 34.3403 51.0001 34.3414 51 34.3426L50.9998 34.3453L50.9993 34.352L50.9978 34.3706C50.9966 34.3853 50.995 34.4046 50.9928 34.4282C50.9886 34.4755 50.9823 34.5403 50.9734 34.6215C50.9556 34.784 50.9275 35.0124 50.8844 35.2975C50.7984 35.867 50.6524 36.6661 50.4093 37.6188C49.9249 39.517 49.0448 42.0667 47.4541 44.6332C44.2126 49.8638 38.0992 55 27.0188 55C15.9364 55 9.81469 49.8497 6.56488 44.6093C4.96987 42.0374 4.08499 39.4822 3.59702 37.58C3.3521 36.6253 3.20451 35.8245 3.11741 35.2538C3.07381 34.9682 3.04523 34.7393 3.02716 34.5766C3.01812 34.4952 3.01169 34.4303 3.00733 34.383C3.00515 34.3593 3.00348 34.34 3.00225 34.3253L3.00073 34.3067L3.00021 34.3L3 34.2972Z" fill="#FE3400"/>
<path d="M50.3907 34.1252L42 34.1578V30H56V36L50.3907 34.1252Z" fill="#FE3400"/>
</svg>
