<svg width="25" height="24" viewBox="0 0 25 24" fill="none" xmlns="http://www.w3.org/2000/svg">
<circle cx="12.5566" cy="12" r="11.5" fill="#C4C4C4" stroke="#BEBBB9"/>
<path fill-rule="evenodd" clip-rule="evenodd" d="M17.9639 7.75668C18.2601 7.46048 18.2601 6.98025 17.9639 6.68406C17.6677 6.38787 17.1875 6.38787 16.8913 6.68406L12.601 10.9744L8.32092 6.69425C8.02472 6.39806 7.5445 6.39806 7.2483 6.69425C6.95211 6.99045 6.95211 7.47068 7.2483 7.76687L11.5284 12.047L7.23777 16.3376C6.94158 16.6338 6.94158 17.114 7.23777 17.4102C7.53397 17.7064 8.01419 17.7064 8.31039 17.4102L12.601 13.1196L16.9018 17.4204C17.198 17.7166 17.6783 17.7166 17.9745 17.4204C18.2707 17.1242 18.2707 16.644 17.9745 16.3478L13.6736 12.047L17.9639 7.75668Z" fill="white"/>
</svg>
