<svg width="18" height="20" viewBox="0 0 18 20" fill="none" xmlns="http://www.w3.org/2000/svg">
<path d="M9 0C4.59356 0 1 3.59356 1 8V9V9.90234C0.426291 10.4494 0 11.1531 0 12C0 13.242 0.857551 14.1629 1.94336 14.6133C3.24439 17.7231 5.85024 20 9 20C12.1498 20 14.7556 17.7231 16.0566 14.6133C17.1424 14.1629 18 13.242 18 12C18 11.1531 17.5737 10.4494 17 9.90234V9V8C17 3.59356 13.4064 0 9 0ZM9 2C11.6556 2 13.8906 3.70738 14.6855 6.08789C14.4642 6.03504 14.2365 6 14 6H4C3.7635 6 3.53581 6.03504 3.31445 6.08789C4.10938 3.70738 6.34441 2 9 2ZM4 8H14C14.565 8 15 8.43497 15 9V10V10.8516L15.502 11.1387C15.8056 11.313 16 11.615 16 12C16 12.5151 15.6312 12.9127 15.1387 12.9805L14.5527 13.0625L14.3398 13.6133C13.309 16.2995 11.2584 18 9 18C6.74155 18 4.69096 16.2995 3.66016 13.6133L3.44727 13.0625L2.86133 12.9805C2.36883 12.9127 2 12.5151 2 12C2 11.615 2.19441 11.313 2.49805 11.1387L3 10.8516V10V9C3 8.43497 3.43497 8 4 8Z" fill="#BEBBB9"/>
</svg>
