<svg width="106" height="106" viewBox="0 0 106 106" fill="none" xmlns="http://www.w3.org/2000/svg">
<path d="M82.4645 50.9036C95.3966 50.9036 105.88 40.42 105.88 27.4879C105.88 14.5558 95.3966 4.07227 82.4645 4.07227C69.5324 4.07227 59.0488 14.5558 59.0488 27.4879C59.0488 40.42 69.5324 50.9036 82.4645 50.9036Z" fill="#BEBBB9"/>
<path fill-rule="evenodd" clip-rule="evenodd" d="M37.811 0C37.8108 0.000238157 37.8106 0.000590431 41.3033 2.07653C44.7959 4.15247 44.7956 4.15305 44.7952 4.15375L44.7941 4.15571L44.7792 4.18177C44.7695 4.19876 44.7557 4.22291 44.7378 4.25405C44.7021 4.31634 44.6501 4.40659 44.5824 4.52341C44.447 4.75702 44.2485 5.09695 43.9908 5.53194C43.4755 6.40178 42.7229 7.6526 41.7636 9.19421C39.8464 12.2753 37.0964 16.5293 33.7588 21.231C28.0545 29.2666 20.4651 38.8531 12.2536 46.0728C13.3313 46.8013 14.6869 47.6067 16.343 48.3997C21.8227 51.0234 30.7432 53.5827 44.0252 52.6106L44.6019 60.8525C29.9925 61.9217 19.689 59.1254 12.9174 55.8832C9.54514 54.2685 7.08523 52.5607 5.43067 51.21C4.60396 50.5352 3.97926 49.9503 3.54267 49.5117C3.32437 49.2924 3.15304 49.1096 3.02693 48.9704C2.96387 48.9007 2.91211 48.842 2.87141 48.7949C2.85107 48.7714 2.83349 48.7508 2.81865 48.7333C2.81122 48.7245 2.80449 48.7165 2.79843 48.7093L2.78986 48.699L2.78596 48.6943C2.78411 48.6921 2.78231 48.6899 5.86535 46.0203L2.78231 48.6899L0 45.3289L3.45695 42.7034C12.1544 36.0977 20.7216 25.5319 27.2209 16.3764C30.4409 11.8405 33.0976 7.73087 34.9477 4.75775C35.872 3.27229 36.5932 2.07338 37.0808 1.25026C37.3246 0.838773 37.5098 0.521418 37.6328 0.309366C37.6942 0.203347 37.7401 0.123672 37.7699 0.0717378L37.8025 0.0148259L37.811 0Z" fill="#BEBBB9"/>
<path fill-rule="evenodd" clip-rule="evenodd" d="M97.7344 105.36C97.7345 105.362 97.7347 105.364 94.0936 105.617C90.4525 105.87 90.4526 105.872 90.4528 105.873L90.453 105.876L90.4532 105.879C90.4533 105.879 90.4532 105.878 90.4529 105.875C90.4524 105.869 90.4512 105.856 90.4492 105.835C90.4453 105.793 90.4382 105.722 90.427 105.623C90.4045 105.425 90.3657 105.117 90.3032 104.716C90.178 103.912 89.9587 102.739 89.5872 101.321C88.841 98.4713 87.5 94.7047 85.134 90.9674C80.5087 83.6612 71.8393 76.1979 54.9418 76.1979C38.0405 76.1979 29.3901 83.6432 24.7838 90.9239C22.427 94.6493 21.0945 98.4041 20.3545 101.245C19.9861 102.659 19.7693 103.828 19.6459 104.629C19.5842 105.029 19.5461 105.335 19.5241 105.533C19.5131 105.631 19.5061 105.702 19.5023 105.744C19.5003 105.765 19.4992 105.778 19.4987 105.784L19.4988 105.782C19.499 105.78 19.4991 105.779 15.8575 105.532C12.216 105.285 12.2161 105.283 12.2163 105.281L12.2167 105.276L12.2176 105.265L12.2202 105.232C12.2224 105.206 12.2253 105.173 12.2291 105.132C12.2367 105.049 12.2479 104.936 12.2637 104.794C12.2954 104.511 12.3455 104.112 12.4222 103.614C12.5754 102.62 12.8356 101.226 13.2688 99.5631C14.1317 96.2503 15.6998 91.8004 18.5337 87.321C24.309 78.1924 35.2007 69.2283 54.9418 69.2283C74.6866 69.2283 85.5931 78.217 91.3831 87.3628C94.2248 91.8515 95.8013 96.3109 96.6707 99.6308C97.1071 101.297 97.37 102.695 97.5252 103.691C97.6029 104.189 97.6538 104.589 97.686 104.873C97.7021 105.015 97.7135 105.128 97.7213 105.211C97.7252 105.252 97.7282 105.285 97.7304 105.311L97.7331 105.344L97.734 105.355L97.7344 105.36Z" fill="#BEBBB9"/>
</svg>
