<svg width="122" height="122" viewBox="0 0 122 122" fill="none" xmlns="http://www.w3.org/2000/svg">
<path d="M95.0193 58.6539C109.92 58.6539 122 46.5742 122 31.6732C122 16.7721 109.92 4.69238 95.0193 4.69238C80.1183 4.69238 68.0386 16.7721 68.0386 31.6732C68.0386 46.5742 80.1183 58.6539 95.0193 58.6539Z" fill="#D7D2C8"/>
<path fill-rule="evenodd" clip-rule="evenodd" d="M43.5678 0C43.5676 0.000274417 43.5674 0.000680326 47.5918 2.39269C51.6162 4.7847 51.6158 4.78537 51.6154 4.78617L51.6141 4.78843L51.597 4.81846C51.5858 4.83803 51.5699 4.86586 51.5493 4.90175C51.5081 4.97352 51.4482 5.07751 51.3702 5.21211C51.2141 5.48129 50.9855 5.87298 50.6885 6.3742C50.0948 7.37647 49.2276 8.81773 48.1223 10.5941C45.9131 14.1442 42.7445 19.0459 38.8986 24.4635C32.3258 33.7226 23.581 44.7685 14.1193 53.0875C15.3611 53.927 16.923 54.855 18.8312 55.7687C25.1452 58.7918 35.424 61.7408 50.7282 60.6208L51.3927 70.1175C34.5589 71.3495 22.6867 68.1274 14.8841 64.3915C10.9984 62.5311 8.16398 60.5632 6.2575 59.0069C5.30492 58.2293 4.58511 57.5554 4.08206 57.05C3.83052 56.7973 3.6331 56.5867 3.48779 56.4263C3.41513 56.346 3.35548 56.2783 3.3086 56.2241C3.28515 56.197 3.26489 56.1733 3.24779 56.1531C3.23924 56.143 3.23148 56.1338 3.2245 56.1254L3.21463 56.1136L3.21013 56.1082C3.208 56.1056 3.20592 56.1031 6.75837 53.027L3.20592 56.1031L0 52.2304L3.98328 49.2051C14.005 41.5937 23.8766 29.4192 31.3653 18.8698C35.0756 13.6432 38.1368 8.90791 40.2685 5.48214C41.3336 3.7705 42.1647 2.38906 42.7265 1.44062C43.0074 0.966479 43.2208 0.600806 43.3625 0.356468C43.4333 0.234307 43.4861 0.142501 43.5205 0.0826601L43.558 0.0170831L43.5678 0Z" fill="#D7D2C8"/>
<path fill-rule="evenodd" clip-rule="evenodd" d="M112.616 121.402C112.616 121.405 112.616 121.407 108.421 121.698C104.225 121.99 104.225 121.992 104.225 121.994L104.226 121.996L104.226 122C104.226 122.001 104.226 121.999 104.226 121.996C104.225 121.989 104.224 121.973 104.221 121.949C104.217 121.901 104.209 121.819 104.196 121.705C104.17 121.477 104.125 121.122 104.053 120.66C103.909 119.734 103.656 118.382 103.228 116.748C102.368 113.465 100.823 109.124 98.097 104.818C92.7674 96.3996 82.7781 87.7999 63.3078 87.7999C43.8333 87.7999 33.8658 96.3788 28.5582 104.768C25.8425 109.061 24.3071 113.387 23.4545 116.66C23.0301 118.29 22.7802 119.637 22.638 120.56C22.567 121.021 22.523 121.374 22.4977 121.601C22.485 121.714 22.477 121.796 22.4725 121.845C22.4703 121.869 22.469 121.884 22.4684 121.891L22.4686 121.888C22.4687 121.887 22.4689 121.885 18.2729 121.6C14.0769 121.316 14.0771 121.313 14.0773 121.311L14.0777 121.306L14.0787 121.292L14.0818 121.255C14.0842 121.225 14.0876 121.186 14.092 121.139C14.1008 121.044 14.1137 120.913 14.1319 120.75C14.1684 120.423 14.2262 119.964 14.3145 119.391C14.4911 118.245 14.7909 116.639 15.29 114.723C16.2843 110.905 18.0912 105.778 21.3565 100.617C28.0111 90.0982 40.5611 79.7692 63.3078 79.7692C86.0588 79.7692 98.6259 90.1265 105.297 100.665C108.572 105.837 110.388 110.975 111.39 114.801C111.893 116.721 112.196 118.331 112.375 119.479C112.464 120.053 112.523 120.513 112.56 120.841C112.579 121.004 112.592 121.135 112.601 121.23C112.605 121.277 112.609 121.316 112.611 121.346L112.614 121.383L112.615 121.397L112.616 121.402Z" fill="#D7D2C8"/>
</svg>
