<svg width="15" height="15" viewBox="0 0 15 15" fill="none" xmlns="http://www.w3.org/2000/svg">
<path d="M4.60599 13.9564L12.1062 6.45628L8.54372 2.89384L1.04355 10.394C0.940297 10.4974 0.86695 10.6268 0.83129 10.7685L0 15L4.2307 14.1687C4.37275 14.1332 4.50269 14.0598 4.60599 13.9564ZM14.5274 4.03504C14.83 3.73234 15 3.32185 15 2.89384C15 2.46582 14.83 2.05533 14.5274 1.75263L13.2474 0.472603C12.9447 0.169995 12.5342 0 12.1062 0C11.6781 0 11.2677 0.169995 10.965 0.472603L9.68493 1.75263L13.2474 5.31507L14.5274 4.03504Z" fill="#BEBBB9"/>
</svg>
