<svg width="26" height="26" viewBox="0 0 26 26" fill="none" xmlns="http://www.w3.org/2000/svg">
<path fill-rule="evenodd" clip-rule="evenodd" d="M17.4565 1.68241C17.2336 1.45936 16.9584 1.29547 16.6561 1.20558C16.3538 1.11569 16.0339 1.10265 15.7252 1.16762C15.4166 1.23259 15.1291 1.37354 14.8887 1.57768C14.6483 1.78183 14.4626 2.04272 14.3485 2.33674L13.6627 4.10149C13.3195 4.98434 12.7765 5.77578 12.0765 6.41384C11.3764 7.05191 10.5381 7.51929 9.62729 7.77941L5.33837 9.00466C5.02093 9.09532 4.73267 9.2673 4.50211 9.50359C4.27155 9.73987 4.10669 10.0323 4.02385 10.3518C3.941 10.6714 3.94304 11.0071 4.02976 11.3256C4.11648 11.6441 4.28488 11.9345 4.51829 12.168L8.60137 16.25L2.54121 22.3112C2.46138 22.3856 2.39735 22.4753 2.35294 22.575C2.30853 22.6747 2.28466 22.7822 2.28273 22.8913C2.28081 23.0004 2.30087 23.1088 2.34174 23.21C2.3826 23.3111 2.44343 23.403 2.52058 23.4802C2.59773 23.5574 2.68964 23.6182 2.79081 23.659C2.89198 23.6999 3.00035 23.72 3.10944 23.718C3.21853 23.7161 3.32612 23.6922 3.42579 23.6478C3.52546 23.6034 3.61515 23.5394 3.68954 23.4596L9.74971 17.3994L13.8317 21.4814C14.0652 21.7148 14.3555 21.8832 14.6741 21.9699C14.9926 22.0567 15.3283 22.0587 15.6479 21.9758C15.9674 21.893 16.2598 21.7281 16.4961 21.4976C16.7324 21.267 16.9044 20.9788 16.995 20.6613L18.2203 16.3713C18.4806 15.4607 18.9481 14.6227 19.5861 13.9229C20.2242 13.223 21.0155 12.6802 21.8982 12.337L23.664 11.6512C23.958 11.537 24.2188 11.3512 24.4228 11.1108C24.6268 10.8703 24.7676 10.5827 24.8325 10.2741C24.8974 9.96552 24.8842 9.6456 24.7943 9.34335C24.7043 9.0411 24.5404 8.76607 24.3173 8.54316L17.4565 1.68241ZM10.3185 15.6704L10.3239 15.6758L10.3293 15.6812L14.9811 20.332C15.0145 20.3653 15.0559 20.3893 15.1014 20.4017C15.1469 20.4141 15.1948 20.4144 15.2404 20.4026C15.286 20.3907 15.3278 20.3672 15.3616 20.3343C15.3953 20.3014 15.4199 20.2603 15.4329 20.215L16.657 15.925C16.9862 14.7732 17.5774 13.7133 18.3845 12.8281C19.1915 11.9429 20.1924 11.2565 21.3089 10.8225L23.0747 10.1357C23.1167 10.1193 23.154 10.0928 23.1831 10.0584C23.2123 10.024 23.2324 9.98293 23.2417 9.93882C23.2509 9.89471 23.249 9.84899 23.2361 9.8058C23.2232 9.76261 23.1998 9.72332 23.1679 9.69149L16.3071 2.83182C16.2753 2.79992 16.236 2.77646 16.1928 2.76358C16.1496 2.75069 16.1039 2.74879 16.0598 2.75804C16.0157 2.7673 15.9746 2.78741 15.9402 2.81656C15.9058 2.84571 15.8793 2.88298 15.863 2.92499L15.1772 4.69082C14.743 5.80706 14.0565 6.80772 13.1713 7.61454C12.2861 8.42135 11.2263 9.01244 10.0747 9.34157L5.78471 10.5668C5.7394 10.5798 5.69827 10.6044 5.66537 10.6381C5.63247 10.6719 5.60896 10.7136 5.59714 10.7593C5.58532 10.8049 5.58562 10.8528 5.59799 10.8983C5.61037 10.9438 5.6344 10.9852 5.66771 11.0186L10.3185 15.6704Z" fill="#E7E6E5"/>
</svg>
