<svg width="38" height="38" viewBox="0 0 38 38" fill="none" xmlns="http://www.w3.org/2000/svg">
<path d="M24.5417 22.1667H23.2908L22.8475 21.7392C24.3992 19.9342 25.3333 17.5908 25.3333 15.0417C25.3333 9.3575 20.7258 4.75 15.0417 4.75C9.3575 4.75 4.75 9.3575 4.75 15.0417C4.75 20.7258 9.3575 25.3333 15.0417 25.3333C17.5908 25.3333 19.9342 24.3992 21.7392 22.8475L22.1667 23.2908V24.5417L30.0833 32.4425L32.4425 30.0833L24.5417 22.1667ZM15.0417 22.1667C11.0992 22.1667 7.91667 18.9842 7.91667 15.0417C7.91667 11.0992 11.0992 7.91667 15.0417 7.91667C18.9842 7.91667 22.1667 11.0992 22.1667 15.0417C22.1667 18.9842 18.9842 22.1667 15.0417 22.1667Z" fill="#FE6740"/>
</svg>
