<svg width="17" height="17" viewBox="0 0 17 17" fill="none" xmlns="http://www.w3.org/2000/svg">
<path d="M3.50714 8.49989L0.819435 1.59023C0.632602 1.10969 1.10127 0.649727 1.56519 0.81281L1.63881 0.844477L15.8888 7.96948C15.9805 8.01543 16.0588 8.08436 16.1159 8.16955C16.1731 8.25474 16.2072 8.35328 16.2149 8.45558C16.2227 8.55787 16.2038 8.66043 16.1601 8.75324C16.1164 8.84606 16.0494 8.92597 15.9656 8.98519L15.8888 9.0311L1.63881 16.1561C1.17727 16.3865 0.675352 15.9629 0.795685 15.4856L0.819435 15.4096L3.50714 8.49989ZM2.48431 2.59406L4.55056 7.90614H9.79693C9.94041 7.90615 10.079 7.95811 10.1872 8.05242C10.2953 8.14672 10.3656 8.277 10.3851 8.41914L10.3907 8.49989C10.3907 8.64349 10.3386 8.78221 10.2441 8.89036C10.1496 8.99851 10.0192 9.06876 9.87689 9.0881L9.79693 9.09364H4.54898L2.48352 14.4057L14.296 8.49989L2.48431 2.59406Z" fill="#807A74"/>
</svg>
