<svg width="18" height="40" viewBox="0 0 18 40" fill="none" xmlns="http://www.w3.org/2000/svg">
<path fill-rule="evenodd" clip-rule="evenodd" d="M0.11057 2.16095L0 3.8219L0.012854 3.84256H0.12085C0.221135 3.8529 0.375426 3.87098 0.575998 3.89939C0.648319 3.91211 0.725804 3.9253 0.808245 3.93933C1.1948 4.00515 1.69031 4.08951 2.27315 4.23003C4.08391 4.66081 5.82367 5.35066 7.43914 6.27845C11.0931 8.40178 14.7549 12.3695 14.7549 20.0258C14.7549 27.6822 11.1009 31.6318 7.45714 33.7577C5.84927 34.6799 4.1183 35.3662 2.31686 35.7958C1.60972 35.9637 1.02342 36.0644 0.622281 36.1213C0.575124 36.128 0.530301 36.1348 0.48802 36.1412C0.352778 36.1616 0.24355 36.1781 0.167149 36.1781H0.0591378H0.0385777L0.146573 37.8391L0.257143 39.5H0.326576L0.491136 39.4845C0.508267 39.4826 0.526332 39.4805 0.545307 39.4784C0.677286 39.4636 0.853244 39.4438 1.06458 39.4122C1.55058 39.3424 2.23457 39.2262 3.04971 39.0299C5.15751 38.53 7.1824 37.7269 9.06171 36.6456C13.536 34.0367 18 29.0745 18 20.0181C18 10.9616 13.5257 5.99172 9.04628 3.36985C7.16393 2.28489 5.13562 1.4784 3.024 0.975294C2.20629 0.778976 1.52229 0.65757 1.03372 0.587825C0.792005 0.554245 0.596579 0.530997 0.457722 0.515498L0.295721 0.5H0.223713C0.223713 0.5 0.221141 0.5 0.11057 2.16095ZM1.93622 26.0084L1.96193 18.8867L0.514211 14.126H5.14278V26.0084H1.93622Z" fill="#FE3400"/>
</svg>
