<svg width="90" height="39" viewBox="0 0 90 39" fill="none" xmlns="http://www.w3.org/2000/svg">
<path class='sense' fill-rule="evenodd" clip-rule="evenodd" d="M14.7287 6.73704L21.2712 6.76433V0.397461H0V9.58277L8.40519 6.75085C8.53679 7.66073 8.75756 8.92897 9.12185 10.4287C10.0631 14.4033 11.5759 18.2202 13.613 21.7605C18.544 30.1868 27.9082 38.5938 44.9687 38.5938C62.0293 38.5938 71.3789 30.2061 76.2955 21.7992C78.3306 18.27 79.8434 14.4644 80.7866 10.5012C81.1499 8.98611 81.3713 7.71672 81.5024 6.80516L89.9195 9.58277V0.397461H68.1648V6.76433L75.167 6.7358C75.0542 7.39837 74.9072 8.20503 74.6856 9.12826C73.877 12.5188 72.5843 15.7751 70.8471 18.797C66.8443 25.6377 59.3993 32.5073 44.9784 32.5073C30.5575 32.5073 23.098 25.6232 19.0806 18.7535C17.3285 15.7219 16.0258 12.452 15.2131 9.04608C14.9986 8.16547 14.8413 7.38455 14.7287 6.73704Z" fill="white"/>
</svg>
