<svg width="55" height="73" viewBox="0 0 55 73" fill="none" xmlns="http://www.w3.org/2000/svg">
<path class='sense' fill-rule="evenodd" clip-rule="evenodd" d="M43.3305 2.51761L40.6668 0.960938L40.7006 1.05762C40.6862 1.07761 40.6733 1.09861 40.6619 1.12047L40.5072 1.38153C40.3858 1.59741 40.1932 1.91372 39.949 2.31487L39.8933 2.40641C39.3566 3.31044 38.559 4.60122 37.5341 6.21107C35.494 9.41142 32.5595 13.8639 29.0063 18.7804C21.8514 28.6764 12.347 40.2016 2.63474 47.4531L0 49.4207L2.1223 51.9346L4.4718 49.938L2.1223 51.9394L2.1513 51.9733L2.30117 52.1376C2.42203 52.273 2.59606 52.4567 2.82327 52.6791C3.44858 53.2913 4.10534 53.8706 4.79087 54.4146C7.24756 56.3489 9.92521 57.9847 12.7676 59.2877C19.8948 62.6411 30.7983 65.5933 46.3129 64.5669L47.9475 72.0259L54.1017 70.4547L48.9628 47.3899L40.082 49.6669L44.9164 58.1947L44.9729 58.4525C30.9731 59.2315 21.4023 56.5168 15.3781 53.6846C13.2152 52.6811 11.1611 51.4581 9.24816 50.0347C18.6365 42.261 27.4109 31.4368 33.9711 22.3627C37.6163 17.3253 40.6184 12.7616 42.7165 9.45977C43.7511 7.80641 44.5729 6.46729 45.1337 5.53909L45.7767 4.46102L45.9459 4.1758L45.9894 4.10328V4.07428L43.3305 2.51761Z" fill="white"/>
</svg>
