<svg width="48" height="20" viewBox="0 0 48 20" fill="none" xmlns="http://www.w3.org/2000/svg">
<path fill-rule="evenodd" clip-rule="evenodd" d="M7.86233 3.31947L11.3548 3.33376V0H0V4.80953L4.48678 3.3267C4.55704 3.80313 4.67488 4.46719 4.86934 5.25247C5.3718 7.33358 6.17934 9.3322 7.26675 11.1859C9.89901 15.598 14.8977 20 24.0048 20C33.1119 20 38.1029 15.6081 40.7274 11.2062C41.8138 9.35826 42.6213 7.36563 43.1248 5.29044C43.3187 4.49711 43.4369 3.83244 43.5069 3.35514L48 4.80953V0H36.3871V3.33376L40.125 3.31882C40.0648 3.66575 39.9863 4.08813 39.868 4.57154C39.4364 6.34685 38.7463 8.05191 37.819 9.6342C35.6822 13.216 31.708 16.8131 24.01 16.8131C16.3119 16.8131 12.33 13.2084 10.1855 9.61142C9.25016 8.02404 8.55474 6.31188 8.12095 4.52851C8.00642 4.06741 7.92246 3.65851 7.86233 3.31947Z" fill="#FE3400"/>
</svg>
