<svg width="33" height="44" viewBox="0 0 33 44" fill="none" xmlns="http://www.w3.org/2000/svg">
<path fill-rule="evenodd" clip-rule="evenodd" d="M26.43 1.44191L24.8052 0.5L24.8258 0.558503C24.8171 0.570594 24.8092 0.583305 24.8023 0.596532L24.7079 0.754492C24.6338 0.88512 24.5164 1.07651 24.3674 1.31925L24.3334 1.37463C24.0061 1.92164 23.5195 2.70267 22.8944 3.67675C21.65 5.61322 19.8601 8.30732 17.6927 11.2822C13.3285 17.2701 7.53121 24.2437 1.60709 28.6315L0 29.8221L1.29452 31.3432L2.72763 30.1351L1.29452 31.3461L1.31221 31.3666L1.40363 31.466C1.47735 31.5479 1.5835 31.6591 1.72209 31.7936C2.10351 32.1641 2.5041 32.5146 2.92225 32.8438C4.42074 34.0142 6.054 35.004 7.78775 35.7924C12.1351 37.8215 18.7858 39.6078 28.2491 38.9867L29.2462 43.5L33 42.5493L29.8654 28.5933L24.4485 29.971L27.3973 35.131L27.4318 35.287C18.8925 35.7584 13.0546 34.1158 9.38009 32.4021C8.06077 31.7949 6.80784 31.0548 5.64103 30.1936C11.3676 25.4899 16.7196 18.9404 20.7211 13.4498C22.9445 10.4018 24.7757 7.64038 26.0555 5.64248C26.6865 4.64206 27.1878 3.83179 27.5299 3.27015L27.9221 2.61783L28.0253 2.44525L28.0518 2.40137V2.38382L26.43 1.44191Z" fill="#FE3400"/>
</svg>
