<svg width="91" height="47" viewBox="0 0 91 47" fill="none" xmlns="http://www.w3.org/2000/svg">
<path class='sense' fill-rule="evenodd" clip-rule="evenodd" d="M8.89255 31.7631C9.02652 30.8601 9.24748 29.6425 9.59099 28.2052C10.5326 24.2353 12.0419 20.422 14.0725 16.8831C18.9697 8.46162 28.271 0.0498047 45.2203 0.0498047C62.1696 0.0498047 71.4565 8.44228 76.3392 16.8541C78.3629 20.3873 79.8657 24.1941 80.8013 28.1569C81.1526 29.622 81.3713 30.8617 81.4997 31.7663L90.4029 29.0514V37.7533H68.1648V31.72L75.2061 31.7455C75.0969 31.1158 74.9481 30.3637 74.7487 29.5202C73.9452 26.1317 72.6607 22.8758 70.9344 19.8514C66.9557 13.0011 59.5639 6.13144 45.2348 6.13144C30.9058 6.13144 23.4802 13.0156 19.5063 19.8852C17.7699 22.9224 16.4788 26.1932 15.6726 29.5975C15.4779 30.409 15.3407 31.1305 15.2327 31.7454L22.2381 31.72V37.7533H0V29.0514L8.89255 31.7631ZM60.4297 31.9518C60.4297 40.2283 53.6132 46.9384 45.2014 46.9384C36.7896 46.9384 29.9731 40.2283 29.9731 31.9518C29.9731 23.6754 36.7896 16.9653 45.2014 16.9653C53.6132 16.9653 60.4297 23.6754 60.4297 31.9518Z" fill="white"/>
</svg>
