<svg width="48" height="26" viewBox="0 0 48 26" fill="none" xmlns="http://www.w3.org/2000/svg">
<path fill-rule="evenodd" clip-rule="evenodd" d="M4.72156 17.4088C4.79269 16.9274 4.91001 16.2782 5.0924 15.5119C5.59233 13.3952 6.39374 11.362 7.47186 9.47516C10.0721 4.985 15.0107 0.5 24.01 0.5C33.0094 0.5 37.9403 4.97469 40.5328 9.45969C41.6073 11.3435 42.4052 13.3732 42.902 15.4861C43.0885 16.2673 43.2046 16.9283 43.2728 17.4106L48 15.963V20.6027H36.1925V17.3859L39.9312 17.3995C39.8732 17.0637 39.7942 16.6627 39.6883 16.213C39.2617 14.4063 38.5797 12.6703 37.6631 11.0578C35.5505 7.40535 31.6259 3.7426 24.0177 3.7426C16.4096 3.7426 12.4669 7.41308 10.357 11.0758C9.43505 12.6952 8.74954 14.4391 8.32148 16.2542C8.21807 16.6869 8.14527 17.0716 8.08789 17.3994L11.8075 17.3859V20.6027H0V15.963L4.72156 17.4088ZM32.0855 17.5095C32.0855 21.9223 28.4663 25.5 24 25.5C19.5337 25.5 15.9144 21.9223 15.9144 17.5095C15.9144 13.0967 19.5337 9.51896 24 9.51896C28.4663 9.51896 32.0855 13.0967 32.0855 17.5095Z" fill="#FE3400"/>
</svg>
