<svg width="74" height="73" viewBox="0 0 74 73" fill="none" xmlns="http://www.w3.org/2000/svg">
<path fill-rule="evenodd" clip-rule="evenodd" d="M46.8771 15.042C46.8771 21.7141 52.2859 27.1229 58.958 27.1229C65.6301 27.1229 71.0389 21.7141 71.0389 15.042C71.0389 8.3699 65.6301 2.9611 58.958 2.9611C52.2859 2.9611 46.8771 8.3699 46.8771 15.042ZM57.7414 30.0355C50.0029 29.4162 43.916 22.9399 43.916 15.042C43.916 6.73453 50.6505 0 58.958 0C67.2655 0 74 6.73453 74 15.042C74 22.7594 68.1882 29.1194 60.7025 29.9839L60.7025 72.5473H0V69.5862H57.7414L57.7414 30.0355Z" fill="white"/>
</svg>
