<svg width="258" height="15" viewBox="0 0 258 15" fill="none" xmlns="http://www.w3.org/2000/svg">
<path d="M5.90625 13H7.41797L7.97168 9.58984H9.79102L10.0547 8.0957H8.21777L8.69238 5.17773H10.5469L10.793 3.66602H8.93848L9.49219 0.273438H7.99805L7.44434 3.66602H4.47363L5.02734 0.273438H3.51562L2.96191 3.66602H1.125L0.896484 5.17773H2.70703L2.23242 8.0957H0.386719L0.158203 9.58984H1.98633L1.42383 13H2.93555L3.49805 9.58984H6.46875L5.90625 13ZM3.74414 8.0957L4.21875 5.17773H7.18945L6.71484 8.0957H3.74414Z" fill="#352C23"/>
<path d="M232.251 14.5H237.171V13.4795H233.433V11.1055H236.87V10.0957H233.433V7.74316H237.128V6.72266H232.251V14.5ZM239.631 11.041C239.631 10.1118 240.195 9.58008 240.984 9.58008C241.758 9.58008 242.214 10.085 242.22 10.9336V14.5H243.358V10.7939C243.364 9.34912 242.569 8.5918 241.371 8.5918C240.501 8.5918 239.926 8.99463 239.652 9.62305H239.588V8.66699H238.481V14.5H239.631V11.041ZM247.483 8.66699H246.291V7.27051H245.152V8.66699H244.293V9.58008H245.152V13.0176C245.142 14.0811 245.953 14.5752 246.85 14.5752C247.167 14.5752 247.414 14.5537 247.569 14.5322V13.5332C247.408 13.5493 247.156 13.5654 246.989 13.5654C246.619 13.5601 246.296 13.4419 246.291 12.7812V9.58008H247.483V8.66699ZM251.05 14.6182C252.333 14.6182 253.23 13.9844 253.488 13.0391H252.328C252.135 13.3936 251.71 13.6729 251.061 13.6729C250.104 13.6729 249.449 13.0444 249.417 11.9326H253.563V11.5244C253.563 9.41357 252.301 8.5918 250.975 8.5918C249.347 8.5918 248.273 9.82715 248.278 11.6211C248.273 13.4312 249.331 14.6182 251.05 14.6182ZM249.422 11.0732C249.471 10.2515 250.067 9.53174 250.985 9.53711C251.861 9.53174 252.436 10.187 252.436 11.0732H249.422ZM254.702 14.5H255.852V10.9443C255.852 10.1816 256.442 9.62842 257.237 9.63379C257.474 9.62842 257.742 9.67676 257.839 9.69824V8.60254C257.721 8.5918 257.495 8.57568 257.355 8.58105C256.673 8.57568 256.088 8.96777 255.873 9.59082H255.809V8.66699H254.702V14.5Z" fill="#BEBBB9"/>
</svg>
