<svg width="22" height="22" viewBox="0 0 22 22" fill="none" xmlns="http://www.w3.org/2000/svg">
<path d="M19.6321 15.8183V6.18172C20.1697 6.04548 20.6617 5.76923 21.0578 5.38107C21.454 4.99292 21.7402 4.50673 21.8874 3.97199C22.0346 3.43726 22.0375 2.87307 21.8958 2.33686C21.7541 1.80064 21.4728 1.31156 21.0806 0.919376C20.6884 0.527197 20.1994 0.24593 19.6631 0.104208C19.1269 -0.0375144 18.5627 -0.0346325 18.028 0.11256C17.4933 0.259753 17.0071 0.546001 16.6189 0.942166C16.2308 1.33833 15.9545 1.83027 15.8183 2.3679H6.18172C6.04548 1.83027 5.76923 1.33833 5.38107 0.942166C4.99292 0.546001 4.50673 0.259753 3.97199 0.11256C3.43726 -0.0346325 2.87307 -0.0375144 2.33686 0.104208C1.80064 0.24593 1.31156 0.527197 0.919376 0.919376C0.527197 1.31156 0.24593 1.80064 0.104208 2.33686C-0.0375144 2.87307 -0.0346325 3.43726 0.11256 3.97199C0.259753 4.50673 0.546001 4.99292 0.942166 5.38107C1.33833 5.76923 1.83027 6.04548 2.3679 6.18172V15.8183C1.83027 15.9545 1.33833 16.2308 0.942166 16.6189C0.546001 17.0071 0.259753 17.4933 0.11256 18.028C-0.0346325 18.5627 -0.0375144 19.1269 0.104208 19.6631C0.24593 20.1994 0.527197 20.6884 0.919376 21.0806C1.31156 21.4728 1.80064 21.7541 2.33686 21.8958C2.87307 22.0375 3.43726 22.0346 3.97199 21.8874C4.50673 21.7402 4.99292 21.454 5.38107 21.0578C5.76923 20.6617 6.04548 20.1697 6.18172 19.6321H15.8183C15.9545 20.1697 16.2308 20.6617 16.6189 21.0578C17.0071 21.454 17.4933 21.7402 18.028 21.8874C18.5627 22.0346 19.1269 22.0375 19.6631 21.8958C20.1994 21.7541 20.6884 21.4728 21.0806 21.0806C21.4728 20.6884 21.7541 20.1994 21.8958 19.6631C22.0375 19.1269 22.0346 18.5627 21.8874 18.028C21.7402 17.4933 21.454 17.0071 21.0578 16.6189C20.6617 16.2308 20.1697 15.9545 19.6321 15.8183ZM18.8474 1.58316C19.1578 1.58316 19.4612 1.67521 19.7193 1.84767C19.9774 2.02012 20.1786 2.26524 20.2974 2.55202C20.4162 2.83881 20.4472 3.15438 20.3867 3.45883C20.3261 3.76327 20.1766 4.04293 19.9571 4.26242C19.7377 4.48192 19.458 4.63139 19.1536 4.69195C18.8491 4.75251 18.5335 4.72143 18.2468 4.60264C17.96 4.48385 17.7149 4.28269 17.5424 4.02459C17.3699 3.76649 17.2779 3.46305 17.2779 3.15264C17.2779 2.73639 17.4432 2.33718 17.7376 2.04285C18.0319 1.74852 18.4311 1.58316 18.8474 1.58316V1.58316ZM1.58316 3.15264C1.58316 2.84222 1.67521 2.53878 1.84767 2.28068C2.02012 2.02259 2.26524 1.82142 2.55202 1.70263C2.83881 1.58384 3.15438 1.55276 3.45883 1.61332C3.76327 1.67388 4.04293 1.82336 4.26242 2.04285C4.48192 2.26235 4.63139 2.542 4.69195 2.84645C4.75251 3.1509 4.72143 3.46646 4.60264 3.75325C4.48385 4.04003 4.28269 4.28515 4.02459 4.4576C3.76649 4.63006 3.46305 4.72211 3.15264 4.72211C2.73639 4.72211 2.33718 4.55675 2.04285 4.26242C1.74852 3.96809 1.58316 3.56889 1.58316 3.15264V3.15264ZM3.15264 20.4168C2.84222 20.4168 2.53878 20.3248 2.28068 20.1523C2.02259 19.9799 1.82142 19.7348 1.70263 19.448C1.58384 19.1612 1.55276 18.8456 1.61332 18.5412C1.67388 18.2367 1.82336 17.9571 2.04285 17.7376C2.26235 17.5181 2.542 17.3686 2.84645 17.308C3.1509 17.2475 3.46646 17.2786 3.75325 17.3974C4.04003 17.5162 4.28515 17.7173 4.4576 17.9754C4.63006 18.2335 4.72211 18.537 4.72211 18.8474C4.72211 19.2636 4.55675 19.6628 4.26242 19.9571C3.96809 20.2515 3.56889 20.4168 3.15264 20.4168ZM15.8183 18.0626H6.18172C6.04081 17.5228 5.75859 17.0304 5.36412 16.6359C4.96964 16.2414 4.47716 15.9592 3.93737 15.8183V6.18172C4.47716 6.04081 4.96964 5.75859 5.36412 5.36412C5.75859 4.96964 6.04081 4.47716 6.18172 3.93737H15.8183C15.9592 4.47716 16.2414 4.96964 16.6359 5.36412C17.0304 5.75859 17.5228 6.04081 18.0626 6.18172V15.8183C17.5228 15.9592 17.0304 16.2414 16.6359 16.6359C16.2414 17.0304 15.9592 17.5228 15.8183 18.0626V18.0626ZM18.8474 20.4168C18.537 20.4168 18.2335 20.3248 17.9754 20.1523C17.7173 19.9799 17.5162 19.7348 17.3974 19.448C17.2786 19.1612 17.2475 18.8456 17.308 18.5412C17.3686 18.2367 17.5181 17.9571 17.7376 17.7376C17.9571 17.5181 18.2367 17.3686 18.5412 17.308C18.8456 17.2475 19.1612 17.2786 19.448 17.3974C19.7348 17.5162 19.9799 17.7173 20.1523 17.9754C20.3248 18.2335 20.4168 18.537 20.4168 18.8474C20.4168 19.2636 20.2515 19.6628 19.9571 19.9571C19.6628 20.2515 19.2636 20.4168 18.8474 20.4168Z" fill="#807A74"/>
<path d="M14.9255 7.07666H7.07812V8.64613H10.2171V15.7088H11.7865V8.64613H14.9255V7.07666Z" fill="#807A74"/>
</svg>
