<svg width="18" height="18" viewBox="0 0 18 18" fill="none" xmlns="http://www.w3.org/2000/svg">
<path d="M15 0H3C2.20435 0 1.44129 0.316071 0.87868 0.87868C0.316071 1.44129 0 2.20435 0 3V15C0 15.7956 0.316071 16.5587 0.87868 17.1213C1.44129 17.6839 2.20435 18 3 18H15C15.7956 18 16.5587 17.6839 17.1213 17.1213C17.6839 16.5587 18 15.7956 18 15V3C18 2.20435 17.6839 1.44129 17.1213 0.87868C16.5587 0.316071 15.7956 0 15 0ZM3 2H15C15.2652 2 15.5196 2.10536 15.7071 2.29289C15.8946 2.48043 16 2.73478 16 3V11.36L12.8 8.63C12.3042 8.22204 11.6821 7.99899 11.04 7.99899C10.3979 7.99899 9.7758 8.22204 9.28 8.63L2 14.7V3C2 2.73478 2.10536 2.48043 2.29289 2.29289C2.48043 2.10536 2.73478 2 3 2ZM15 16H3.56L10.56 10.16C10.6945 10.0602 10.8575 10.0062 11.025 10.0062C11.1925 10.0062 11.3555 10.0602 11.49 10.16L16 14V15C16 15.2652 15.8946 15.5196 15.7071 15.7071C15.5196 15.8946 15.2652 16 15 16Z" fill="#807A74"/>
<path d="M5 7.00012C5.82843 7.00012 6.5 6.32855 6.5 5.50012C6.5 4.67169 5.82843 4.00012 5 4.00012C4.17157 4.00012 3.5 4.67169 3.5 5.50012C3.5 6.32855 4.17157 7.00012 5 7.00012Z" fill="#807A74"/>
</svg>
