<svg width="20" height="20" viewBox="0 0 20 20" fill="none" xmlns="http://www.w3.org/2000/svg">
<path d="M8.47957e-06 6.88198C-0.00277139 5.11189 0.678044 3.40901 1.90056 2.12825C3.12308 0.847487 4.79298 0.0876586 6.56222 0.00712212C8.33147 -0.0734144 10.0636 0.531555 11.3975 1.69595C12.7315 2.86034 13.5643 4.49431 13.7226 6.25732H10.6251C9.46473 6.25732 8.35192 6.71801 7.53145 7.53802C6.71097 8.35804 6.25003 9.47022 6.25003 10.6299V13.7257C4.5418 13.5698 2.95356 12.7814 1.79717 11.5151C0.640773 10.2489 -0.000233047 8.59636 8.47957e-06 6.88198Z" fill="#807A74"/>
<path d="M10.625 7.50684C9.79621 7.50684 9.00135 7.83589 8.4153 8.42162C7.82924 9.00735 7.5 9.80176 7.5 10.6301V16.8766C7.5 17.705 7.82924 18.4994 8.4153 19.0851C9.00135 19.6708 9.79621 19.9999 10.625 19.9999H16.875C17.7038 19.9999 18.4987 19.6708 19.0848 19.0851C19.6708 18.4994 20 17.705 20 16.8766V10.6301C20 9.80176 19.6708 9.00735 19.0848 8.42162C18.4987 7.83589 17.7038 7.50684 16.875 7.50684H10.625Z" fill="#807A74"/>
</svg>
