<svg width="20" height="20" viewBox="0 0 20 20" fill="none" xmlns="http://www.w3.org/2000/svg">
<path d="M16.3889 0C17.3466 0 18.2651 0.380455 18.9423 1.05767C19.6195 1.73488 20 2.65338 20 3.61111V11.2544C19.9997 11.9171 19.7363 12.5525 19.2678 13.0211L13.0222 19.2678C12.7901 19.4999 12.5145 19.6841 12.2112 19.8097C11.9078 19.9353 11.5828 20 11.2544 20H3.61111C2.65338 20 1.73488 19.6195 1.05767 18.9423C0.380455 18.2651 0 17.3466 0 16.3889V3.61111C0 2.65338 0.380455 1.73488 1.05767 1.05767C1.73488 0.380455 2.65338 0 3.61111 0H16.3889ZM16.3889 1.66667H3.61111C3.09541 1.66667 2.60084 1.87153 2.23618 2.23618C1.87153 2.60084 1.66667 3.09541 1.66667 3.61111V16.3889C1.66667 17.4622 2.53778 18.3333 3.61111 18.3333H11.1111V14.7222C11.1111 13.7998 11.4639 12.9124 12.0974 12.242C12.7309 11.5715 13.5969 11.1689 14.5178 11.1167L14.7222 11.1111H18.3333V3.61111C18.3333 3.09541 18.1285 2.60084 17.7638 2.23618C17.3992 1.87153 16.9046 1.66667 16.3889 1.66667ZM17.1544 12.7778H14.7222C14.2341 12.7778 13.7638 12.9615 13.4048 13.2923C13.0458 13.6231 12.8243 14.0768 12.7844 14.5633L12.7778 14.7222V17.1544L17.1544 12.7778Z" fill="#807A74"/>
</svg>
