<svg width="61" height="61" viewBox="0 0 61 61" fill="none" xmlns="http://www.w3.org/2000/svg">
<path fill-rule="evenodd" clip-rule="evenodd" d="M19.6467 8.59974C19.5117 10.6184 19.5117 10.6184 19.5117 10.6184L19.5274 10.6435H19.6593C19.7817 10.6561 19.9701 10.6781 20.215 10.7126C20.3033 10.7281 20.3979 10.7441 20.4985 10.7612C20.9705 10.8411 21.5754 10.9437 22.287 11.1145C24.4978 11.638 26.6219 12.4764 28.5942 13.6041C33.0554 16.1847 37.526 21.007 37.526 30.3124C37.526 39.6178 33.0648 44.418 28.6162 47.0018C26.6531 48.1227 24.5398 48.9568 22.3404 49.4789C21.477 49.6829 20.7612 49.8054 20.2715 49.8744C20.2139 49.8827 20.1592 49.8909 20.1075 49.8987C19.9424 49.9235 19.8091 49.9435 19.7158 49.9435H19.5839H19.5588L19.6907 51.9622L19.8257 53.9809H19.9104L20.1114 53.962C20.1323 53.9597 20.1543 53.9572 20.1775 53.9546C20.3386 53.9366 20.5534 53.9126 20.8115 53.8741C21.4048 53.7894 22.2399 53.6481 23.2351 53.4095C25.8086 52.8019 28.2808 51.8259 30.5752 50.5118C36.0379 47.3409 41.4881 41.31 41.4881 30.3029C41.4881 19.2959 36.0254 13.2556 30.5564 10.069C28.2582 8.75038 25.7818 7.77019 23.2037 7.15872C22.2054 6.92012 21.3703 6.77256 20.7738 6.6878C20.4787 6.64698 20.2401 6.61873 20.0706 6.59989L19.8728 6.58105H19.7849C19.7849 6.58105 19.7817 6.58105 19.6467 8.59974ZM21.8758 37.5834L21.9072 28.9279L20.1396 23.1418H25.7907V37.5834H21.8758Z" fill="white"/>
</svg>
