<svg width="61" height="61" viewBox="0 0 61 61" fill="none" xmlns="http://www.w3.org/2000/svg">
<path fill-rule="evenodd" clip-rule="evenodd" d="M7.57914 35.5061C7.6636 34.9367 7.80076 34.165 8.01964 33.2549C8.48447 31.3221 9.3279 28.7234 10.8494 26.1061C13.9423 20.7856 19.8151 15.4751 30.5188 15.4751C41.2208 15.4751 47.0856 20.7738 50.1704 26.0863C51.6875 28.6991 52.5264 31.2932 52.9877 33.2224C53.2093 34.1492 53.3461 34.9323 53.4291 35.5038L59.0438 33.7917V39.2868H45.001V35.4775L49.4445 35.4933C49.3756 35.0971 49.2817 34.625 49.1551 34.0953C48.7522 32.4104 48.0272 30.1858 46.7463 27.9798C44.2349 23.6547 39.5661 19.3159 30.5188 19.3159C21.473 19.3159 16.7941 23.6636 14.2725 28.0013C12.9868 30.213 12.2574 32.4434 11.8511 34.1325C11.7277 34.6455 11.6351 35.1046 11.5661 35.4933L15.9998 35.4775V39.2868H1.95703V33.7918L7.57914 35.5061ZM40.1163 35.6235C40.1163 40.8502 35.8109 45.0872 30.5 45.0872C25.1891 45.0872 20.8838 40.8502 20.8838 35.6235C20.8838 30.3969 25.1891 26.1599 30.5 26.1599C35.8109 26.1599 40.1163 30.3969 40.1163 35.6235Z" fill="white"/>
</svg>
