<svg width="61" height="61" viewBox="0 0 61 61" fill="none" xmlns="http://www.w3.org/2000/svg">
<path fill-rule="evenodd" clip-rule="evenodd" d="M11.4228 22.2264L15.5416 22.2433V18.2224H2.10938V24.0227L7.41558 22.2358C7.49947 22.8114 7.63979 23.611 7.86986 24.5614C8.33765 26.4939 9.18652 29.0924 10.718 31.7095C13.8312 37.0296 19.743 42.3394 30.5182 42.3394C41.2914 42.3394 47.1951 37.0439 50.3003 31.7339C51.8275 29.1224 52.6718 26.5295 53.1361 24.6012C53.365 23.6507 53.504 22.8514 53.5867 22.2766L58.8908 24.0227V18.2224H45.1533V22.2433L49.5877 22.2255C49.5169 22.6421 49.4172 23.151 49.2782 23.7283C48.8727 25.4121 48.1432 27.6354 46.8539 29.84C44.3263 34.1623 39.6267 38.499 30.5182 38.499C21.4117 38.499 16.7019 34.1517 14.1638 29.8146C12.8697 27.6031 12.1356 25.373 11.7268 23.6841C11.5921 23.1278 11.4938 22.6348 11.4228 22.2264Z" fill="white"/>
</svg>
