<svg width="61" height="61" viewBox="0 0 61 61" fill="none" xmlns="http://www.w3.org/2000/svg">
<path fill-rule="evenodd" clip-rule="evenodd" d="M40.7928 8.82542C39.111 7.84322 39.1111 7.84302 39.1111 7.84302L39.1099 7.84518L39.1045 7.85449L39.0809 7.89483C39.0596 7.93125 39.0272 7.98659 38.9839 8.05988C38.8973 8.20646 38.7674 8.42482 38.5969 8.70735C38.2558 9.27248 37.7523 10.0939 37.1076 11.1109C35.8175 13.1458 33.9654 15.9581 31.7205 19.0628C27.2021 25.3117 21.2016 32.591 15.0679 37.1681L13.4043 38.4096L14.7431 39.9985L14.7448 40.0006L14.7468 40.0029L14.7512 40.0082L14.7622 40.021L14.7742 40.0349L14.7925 40.0558C14.8165 40.083 14.8481 40.1182 14.8873 40.1608C14.9659 40.246 15.0752 40.3608 15.2166 40.5003C15.4994 40.7795 15.9105 41.1581 16.4594 41.5983C17.5576 42.4793 19.2057 43.6055 21.4776 44.6746C25.9825 46.7945 32.871 48.6573 42.6766 48.0088L43.7095 52.7188L47.5953 51.7144L44.3494 37.1497L38.7422 38.6004L41.7939 43.9836L41.8295 44.1457C32.98 44.6404 26.9341 42.927 23.1285 41.1361C21.412 40.3283 20.1375 39.4984 19.2571 38.8327C25.1853 33.9221 30.7269 27.0872 34.8688 21.3589C37.1703 18.1759 39.0673 15.2955 40.3897 13.2096C41.0512 12.1661 41.5698 11.3202 41.9242 10.733C42.1014 10.4394 42.2377 10.2104 42.3302 10.0536C42.3765 9.97522 42.4119 9.91489 42.4361 9.87358L42.4639 9.82598L42.4735 9.80942L42.4741 9.80828C42.4741 9.80828 42.4745 9.80761 40.7928 8.82542Z" fill="white"/>
</svg>
